<?xml version="1.0" encoding="UTF-8"?>
<svg width="211px" height="46px" viewBox="0 0 211 46" version="1.1" xmlns="http://www.w3.org/2000/svg" xmlns:xlink="http://www.w3.org/1999/xlink">
    <!-- Generator: Sketch 63.1 (92452) - https://sketch.com -->
    <title>logo</title>
    <desc>Created with Sketch.</desc>
    <g id="Page-1" stroke="none" stroke-width="1" fill="none" fill-rule="evenodd">
        <g id="Artboard" transform="translate(-169.000000, -73.000000)" fill-rule="nonzero">
            <g id="logo" transform="translate(169.000000, 72.000000)">
                <path d="M67.796875,35.7138672 L61,35.7138672 L71.3564453,5.71386719 L79.5302734,5.71386719 L89.87207,35.7138672 L83.0751953,35.7138672 L80.8486328,28.8730469 L70.0234375,28.8730469 L67.796875,35.7138672 Z M71.6347656,23.921875 L79.2519531,23.921875 L75.5605469,12.569336 L75.3261719,12.569336 L71.6347656,23.921875 Z M99.598633,5.71386719 L99.598633,35.7138672 L93.358398,35.7138672 L93.358398,5.71386719 L99.598633,5.71386719 Z M104.579102,35.7138672 L104.579102,13.2138672 L110.819336,13.2138672 L110.819336,35.7138672 L104.579102,35.7138672 Z M107.713867,10.3134766 C106.795894,10.3134766 106.004886,10.0034211 105.34082,9.38330079 C104.676754,8.76318049 104.344727,8.01855899 104.344727,7.14941409 C104.344727,6.28026909 104.676754,5.53808902 105.34082,4.92285157 C106.004886,4.30761411 106.795894,4 107.713867,4 C108.641606,4 109.437497,4.30761411 110.101562,4.92285157 C110.765628,5.53808902 111.097656,6.28026909 111.097656,7.14941409 C111.097656,8.01855899 110.765628,8.76318049 110.101562,9.38330079 C109.437497,10.0034211 108.641606,10.3134766 107.713867,10.3134766 Z M134.520508,19.6298828 L128.807617,19.9814453 C128.651366,19.2587855 128.255863,18.6386745 127.621094,18.1210938 C126.986325,17.603513 126.126959,17.3447266 125.042969,17.3447266 C124.076167,17.3447266 123.258304,17.5473613 122.589355,17.9526367 C121.940678,18.3456311 121.611107,18.8648812 121.600633,19.5104016 L121.600586,19.5712891 C121.59082,20.1084011 121.80322,20.5624982 122.237793,20.9335938 C122.672365,21.3046894 123.412104,21.602538 124.457031,21.8271484 L128.529297,22.647461 C132.85549,23.5361373 135.023437,25.567367 135.033203,28.741211 C135.033203,30.2158277 134.601079,31.5097601 133.736816,32.6230469 C132.872554,33.7363337 131.688484,34.6030243 130.18457,35.2231445 C128.680657,35.8432648 126.957041,36.1533203 125.013672,36.1533203 C122.035141,36.1533203 119.662118,35.530768 117.894531,34.2856445 C116.126944,33.0405211 115.096681,31.3437608 114.803711,29.1953125 L120.941406,28.8730469 C121.13672,29.7910202 121.588375,30.4843727 122.296387,30.953125 C123.004398,31.4218774 123.915033,31.65625 125.02832,31.65625 C126.122076,31.65625 127.003415,31.4414084 127.672363,31.0117188 C128.341312,30.5820291 128.680664,30.0351596 128.69043,29.3710938 C128.661133,28.2578069 127.699228,27.5107441 125.804688,27.1298828 L121.908203,26.3535156 C117.596268,25.4930621 115.428343,23.3835806 115.404367,20.0250088 L115.404297,19.9228516 C115.394531,17.754872 116.261222,16.0459047 118.004395,14.7958984 C119.747567,13.5458922 122.059556,12.9208984 124.94043,12.9208984 C127.782241,12.9208984 130.020988,13.5214784 131.656738,14.7226563 C133.292489,15.9238341 134.247069,17.55956 134.520508,19.6298828 Z M150.941406,13.2138672 L150.941406,17.9013672 L146.708008,17.9013672 L146.708008,28.7998047 C146.708008,29.659184 146.903318,30.2402329 147.293945,30.5429688 C147.684572,30.8457047 148.19238,30.9970703 148.817383,30.9970703 C149.110352,30.9970703 149.403319,30.9702151 149.696289,30.9165039 L150.370117,30.7919922 L150.370117,30.7919922 L151.351562,35.4355469 L151.235997,35.4707235 C150.933904,35.560439 150.532976,35.6634588 150.033203,35.7797852 C149.500112,35.9038667 148.858898,35.9825317 148.109545,36.0157821 L147.967773,36.0214844 C145.702137,36.1191411 143.883308,35.6284234 142.51123,34.5493164 C141.162021,33.4881946 140.480905,31.8817712 140.467861,29.7299993 L140.467773,17.9013672 L137.391602,17.9013672 L137.391602,13.2138672 L140.467773,13.2138672 L140.467773,7.82324219 L146.708008,7.82324219 L146.708008,13.2138672 L150.941406,13.2138672 Z M158.851562,44.1074219 C158.060543,44.1074219 157.320804,44.0488287 156.632324,43.9316406 C155.943844,43.8144526 155.375002,43.6630869 154.925781,43.4775391 L156.332031,38.8046875 C157.435552,39.1464861 158.365719,39.2368172 159.122559,39.0756836 C159.879398,38.91455 160.477537,38.326177 160.916992,37.3105469 L161.283203,36.3583984 L153.211914,13.2138672 L159.774414,13.2138672 L164.432617,29.7373047 L164.666992,29.7373047 L169.369141,13.2138672 L175.975586,13.2431641 L167.230469,38.1455078 C166.605466,39.9423918 165.633796,41.3852485 164.31543,42.4741211 C162.997064,43.5629937 161.175793,44.1074219 158.851562,44.1074219 Z M185.40918,5.71386719 L185.40918,35.7138672 L179.168945,35.7138672 L179.168945,5.71386719 L185.40918,5.71386719 Z M200.394531,12.9208984 C202.376963,12.9208984 204.166496,13.3408161 205.763184,14.1806641 C207.359871,15.020512 208.626948,16.2875892 209.564453,17.9819336 C210.501958,19.676278 210.970703,21.7978388 210.970703,24.3466797 L210.970703,26.0605469 L195.648438,26.0605469 L195.648438,26.0751953 C195.648438,27.7548912 196.107417,29.0781202 197.025391,30.0449219 C197.943364,31.0117236 199.183586,31.4951172 200.746094,31.4951172 C201.791021,31.4951172 202.694332,31.2753928 203.456055,30.8359375 C204.217777,30.3964822 204.754881,29.7470746 205.067383,28.8876953 L210.838867,29.2685547 C210.399412,31.3584089 209.286142,33.0283141 207.499023,34.2783203 C205.711905,35.5283266 203.426772,36.1533203 200.643555,36.1533203 C198.338856,36.1533203 196.351571,35.6821336 194.681641,34.7397461 C193.01171,33.7973586 191.727544,32.4594813 190.829102,30.7260742 C189.93066,28.9926671 189.481445,26.939465 189.481445,24.5664063 C189.481445,22.2519416 189.93066,20.2207119 190.829102,18.4726563 C191.727544,16.7246006 192.994621,15.3623096 194.630371,14.3857422 C196.266121,13.4091748 198.187489,12.9208984 200.394531,12.9208984 Z M200.49707,17.5791016 C199.110345,17.5791016 197.972661,18.0283158 197.083984,18.9267578 C196.195308,19.8251998 195.716797,20.9140561 195.648438,22.1933594 L195.648438,22.1933594 L205.09668,22.1933594 C205.086914,20.8554621 204.657231,19.7519575 203.807617,18.8828125 C202.958004,18.0136675 201.854499,17.5791016 200.49707,17.5791016 Z" id="Alistyle-Copy" fill="#FF5500"></path>
                <g id="Group-6" transform="translate(0.000000, 0.662951)">
                    <path d="M38.1568542,2.99390335 L53.0060967,17.8431458 C56.130291,20.9673401 56.130291,26.0326599 53.0060967,29.1568542 L38.1568542,44.0060967 C35.0326599,47.130291 29.9673401,47.130291 26.8431458,44.0060967 L11.9939033,29.1568542 C8.86970901,26.0326599 8.86970901,20.9673401 11.9939033,17.8431458 L26.8431458,2.99390335 C29.9673401,-0.130290988 35.0326599,-0.130290988 38.1568542,2.99390335 Z" id="Rectangle-Copy-5" fill="#FFCFB7"></path>
                    <path d="M29.1568542,2.99390335 L44.0060967,17.8431458 C47.130291,20.9673401 47.130291,26.0326599 44.0060967,29.1568542 L29.1568542,44.0060967 C26.0326599,47.130291 20.9673401,47.130291 17.8431458,44.0060967 L2.99390335,29.1568542 C-0.130290988,26.0326599 -0.130290988,20.9673401 2.99390335,17.8431458 L17.8431458,2.99390335 C20.9673401,-0.130290988 26.0326599,-0.130290988 29.1568542,2.99390335 Z" id="Rectangle-Copy-6" fill="#FF5500"></path>
                    <path d="M21,31.337049 L21,28.081235 L15.984984,23.837049 L21,19.592863 L21,16.337049 L14,22.6161188 L14,25.041368 L21,31.337049 Z M27,31.337049 L34,25.041368 L34,22.6161188 L27,16.337049 L27,19.4931952 L31.9931442,23.837049 L27,28.1476803 L27,31.337049 Z" id="&lt;/&gt;-copy" fill="#FFFFFF"></path>
                </g>
            </g>
        </g>
    </g>
</svg>